<svg height="512pt" viewBox="0 0 512 512" width="512pt" xmlns="http://www.w3.org/2000/svg"><path d="m512 114.601562v336.796876c0 33.410156-27.191406 60.601562-60.601562 60.601562h-390.796876c-33.410156 0-60.601562-27.191406-60.601562-60.601562v-336.796876l255.71875-20zm0 0" fill="#65e86d"/><path d="m512 114.601562v336.796876c0 33.410156-27.191406 60.601562-60.601562 60.601562h-195.679688v-417.398438zm0 0" fill="#00b353"/><path d="m512 60.601562v54h-512v-54c0-33.410156 27.191406-60.601562 60.601562-60.601562h390.796876c33.410156 0 60.601562 27.191406 60.601562 60.601562zm0 0" fill="#00429b"/><path d="m512 60.601562v54h-256.28125v-114.601562h195.679688c33.410156 0 60.601562 27.191406 60.601562 60.601562zm0 0" fill="#002659"/><path d="m81.171875 42.300781h-15.300781c-8.28125 0-15 6.714844-15 15 0 8.285157 6.71875 15 15 15h15.300781c8.285156 0 15-6.714843 15-15 0-8.285156-6.714844-15-15-15zm0 0" fill="#fff"/><path d="m136.660156 42.300781h-15.300781c-8.285156 0-15 6.714844-15 15 0 8.285157 6.714844 15 15 15h15.300781c8.285156 0 15-6.714843 15-15 0-8.285156-6.714844-15-15-15zm0 0" fill="#fff"/><path d="m192.011719 42.300781h-15.300781c-8.285157 0-15 6.714844-15 15 0 8.285157 6.714843 15 15 15h15.300781c8.28125 0 15-6.714843 15-15 0-8.285156-6.71875-15-15-15zm0 0" fill="#fff"/><path d="m416.859375 181.480469c0 8.28125-6.71875 15-15 15h-335.988281c-8.28125 0-15-6.71875-15-15s6.71875-15 15-15h335.988281c8.28125 0 15 6.71875 15 15zm0 0" fill="#00429b"/><path d="m461.558594 241.480469c0 8.28125-6.71875 15-15 15h-350.617188c-8.28125 0-15-6.71875-15-15s6.71875-15 15-15h350.617188c8.28125 0 15 6.71875 15 15zm0 0" fill="#00429b"/><path d="m385.179688 301.378906c0 8.28125-6.71875 15-15 15h-304.308594c-8.28125 0-15-6.71875-15-15 0-8.289062 6.71875-15 15-15h304.308594c8.28125 0 15 6.710938 15 15zm0 0" fill="#00429b"/><path d="m200.394531 346.375h-104.453125c-8.285156 0-15 6.714844-15 15s6.714844 15 15 15h104.453125c8.28125 0 15-6.714844 15-15s-6.71875-15-15-15zm0 0" fill="#00429b"/><g fill="#002659"><path d="m406.921875 352.402344c-5.855469-5.855469-15.355469-5.855469-21.210937 0-5.859376 5.859375-5.859376 15.355468 0 21.214844l32.570312 32.570312-32.570312 32.574219c-5.859376 5.855469-5.859376 15.351562 0 21.210937 2.929687 2.929688 6.765624 4.394532 10.605468 4.394532 3.835938 0 7.675782-1.464844 10.605469-4.394532l36.386719-36.386718c9.59375-9.59375 9.59375-25.203126 0-34.796876zm0 0"/><path d="m346.878906 352.402344c-5.855468-5.855469-15.355468-5.855469-21.210937 0l-36.386719 36.386718c-9.59375 9.59375-9.59375 25.203126 0 34.796876l36.386719 36.386718c2.929687 2.929688 6.765625 4.394532 10.605469 4.394532 3.835937 0 7.675781-1.464844 10.605468-4.394532 5.859375-5.859375 5.859375-15.355468 0-21.210937l-32.570312-32.574219 32.570312-32.570312c5.859375-5.859376 5.859375-15.355469 0-21.214844zm0 0"/><path d="m385.179688 301.378906c0 8.28125-6.71875 15-15 15h-114.460938v-30h114.460938c8.28125 0 15 6.710938 15 15zm0 0"/><path d="m401.859375 196.480469h-146.140625v-30h146.140625c8.28125 0 15 6.71875 15 15s-6.71875 15-15 15zm0 0"/><path d="m461.558594 241.480469c0 8.28125-6.71875 15-15 15h-190.839844v-30h190.839844c8.28125 0 15 6.71875 15 15zm0 0"/></g></svg>